<mxfile host="app.diagrams.net" modified="2024-02-13T03:00:54.815Z" agent="Mozilla/5.0 (Windows NT 10.0; Win64; x64) AppleWebKit/537.36 (KHTML, like Gecko) Chrome/121.0.0.0 Safari/537.36" version="23.1.3" etag="3skVGvHXiCnp3bHJHySO" type="github">
  <diagram name="Halaman-1" id="j0GXUvRU44pEKVvUXE_A">
    <mxGraphModel>
      <root>
        <mxCell id="0" />
        <mxCell id="1" parent="0" />
      </root>
    </mxGraphModel>
  </diagram>
</mxfile>
